HIERARCHY
ROOT Hips
{
  OFFSET 0.0 0.0 0.0
  CHANNELS 6 XPOSITION YPOSITION ZPOSITION ZROTATION XROTATION YROTATION 
  JOINT LeftUpLeg
  {
    OFFSET 0.089458 -0.0866707 0.00101652
    CHANNELS 3 ZROTATION XROTATION YROTATION 
    JOINT LeftLeg
    {
      OFFSET 0.0 -0.444227 0.013727
      CHANNELS 3 ZROTATION XROTATION YROTATION 
      JOINT LeftFoot
      {
        OFFSET -0.00253549 -0.420924 -0.0146059
        CHANNELS 3 ZROTATION XROTATION YROTATION 
        End Site
        {
          OFFSET -0.0004 -0.0441509 0.084991
        }
      }
    }
  }
  JOINT Spine
  {
    OFFSET 0.0 0.118905 0.0
    CHANNELS 3 ZROTATION XROTATION YROTATION 
    JOINT Spine1
    {
      OFFSET 0.0 0.256574 0.00127663
      CHANNELS 3 ZROTATION XROTATION YROTATION 
      End Site
      {
        OFFSET -0.0029 0.2150836 0.02525291
      }
      JOINT RightArm
      {
        OFFSET -0.162727 -0.05365632 0.00102123
        CHANNELS 3 ZROTATION XROTATION YROTATION 
        JOINT RightForeArm
        {
          OFFSET -0.26364 0.00099144 -0.0142434
          CHANNELS 3 ZROTATION XROTATION YROTATION 
          End Site
          {
            OFFSET -0.220324 0.00085362 0.0102216
          }
        }
      }
      JOINT LeftArm
      {
        OFFSET 0.162727 -0.0536563199 0.00102123
        CHANNELS 3 ZROTATION XROTATION YROTATION 
        JOINT LeftForeArm
        {
          OFFSET 0.262597 0.00099144 -0.0142434
          CHANNELS 3 ZROTATION XROTATION YROTATION 
          End Site
          {
            OFFSET 0.220902 0.00085362 0.0102216
          }
        }
      }
    }
  }
  JOINT RightUpLeg
  {
    OFFSET -0.089458 -0.0866707 0.00101652
    CHANNELS 3 ZROTATION XROTATION YROTATION 
    JOINT RightLeg
    {
      OFFSET 0.0 -0.444227 0.013727
      CHANNELS 3 ZROTATION XROTATION YROTATION 
      JOINT RightFoot
      {
        OFFSET 0.00253549 -0.420924 -0.0146059
        CHANNELS 3 ZROTATION XROTATION YROTATION 
        End Site
        {
          OFFSET 0.0004 -0.0441509 0.084991
        }
      }
    }
  }
}
MOTION
Frames: 8
Frame Time: 0.033333
-36.689263 0.940793437605 -0.72819208 -6.44985008608 -2.80998998374 -99.0327022856 -5.65930008588 -24.1433987819 0.472983022782 1.3344300664 36.7816990768 22.7655993622 -0.928893027239 -11.1030991657 0.0226865000086 -1.83796014975 13.876400148 3.13521008141 -6.9210200138 -1.48623006021 4.10279986555 82.1633849603 -15.4998797647 15.7747624353 10.5488002863 38.2238013125 4.96990988304 -68.6673956132 -19.2589939027 11.002419616 -9.07345039723 42.1839996348 -6.03642001628 -6.99680010887 14.8442003874 3.36283019092 -1.08821999623 48.4231998567 -11.0047000454 15.3810993599 -6.5351497573 -0.288430991243 
-36.729246 0.944888437605 -0.72411358 -6.92356041729 -3.39892005672 -100.044997792 -6.9214801978 -21.1581006806 0.855367961814 1.37628994795 37.2859002263 23.5679007029 -1.77310995818 -14.4075002899 -0.0326234013896 -3.74171978065 14.3587002959 3.07748986028 -6.36584003995 -1.19985004671 3.59574028195 83.313138024 -20.5587754866 14.2526897835 14.1729003674 46.0108999853 -3.62800993757 -69.2550445988 -17.2850436193 10.2699270775 -8.08147982596 40.5615018578 -8.09520082223 -7.21570041469 7.42959974138 4.69264987963 -1.56955996891 61.2099013792 -12.8539993764 10.5616999523 0.947113944232 -0.938782927714 
-36.767875 0.950749437605 -0.72078298 -7.42012029259 -3.71603015852 -100.631000702 -7.95100016092 -17.7890005895 1.07317991968 1.38215996193 36.6581990113 23.8645989978 -2.25062993412 -16.2784000942 -0.0884199937869 -5.14848005625 14.7764995523 2.80994003799 -5.70911009418 -0.783793982615 2.92239995644 82.7451258323 -21.5071404227 11.3684118876 16.0746999475 50.3446994099 -7.64624053525 -69.8239105642 -14.4751703891 8.6254121858 -6.81398027734 38.7497019729 -10.5298994453 -6.86842030012 0.312574989588 5.05939005693 -2.51316981265 71.3946013563 -12.81499985 8.43994010643 0.857548019459 -0.747093028327 
-36.806764 0.958728437605 -0.71801168 -7.84564022411 -3.55829995968 -100.581003718 -8.39849964119 -13.7932997977 1.55943005132 1.34820004793 34.8766978456 23.6894012304 -2.62695991045 -17.9028000788 -0.146778003839 -5.67011953241 15.1659996275 2.3472600354 -5.00858027969 -0.527768023476 2.20657009133 81.0082018961 -21.4350563138 6.82891704728 15.3934995683 51.0666982164 -6.36015988388 -70.1640813056 -11.7932069653 6.60634039214 -5.1831398512 36.457797846 -13.2403993995 -5.97315026645 -6.28845015467 4.47960005772 -3.99720983674 78.1164022544 -11.745599693 8.87629954816 -2.71042012635 -0.520963020628 
-36.845552 0.965830437605 -0.71556838 -8.09014050583 -3.2263600231 -100.323000152 -8.52447991911 -9.63880991427 2.40028001916 1.30525000416 32.5443999799 23.1177997743 -3.08653986093 -19.6795986593 -0.22714799937 -5.76025028181 15.4707011965 1.88749012029 -4.43322990345 -0.518331957055 1.54709003392 78.728639921 -20.5348117679 1.66350868733 13.3731987675 48.5110975611 -2.33159990574 -70.4005629453 -9.01123505786 4.91061957218 -3.08208999268 32.6448993834 -16.6711991507 -4.84566959582 -12.7481997462 3.7316102469 -5.59104045598 81.4649981176 -10.2540998217 9.60155037858 -5.52730027687 -0.340319004553 
-36.884666 0.971984437605 -0.71334968 -8.23700920978 -2.94371975161 -100.017998054 -8.64640989485 -5.4390700276 3.18765013942 1.17383001418 29.8089023871 22.1963987175 -3.21572990087 -20.9022008132 -0.269229008289 -5.75018002166 15.619800811 1.39166000801 -3.85369005992 -0.599742048989 0.914840019743 76.6857371705 -19.172224887 -2.89623456895 11.7345996734 45.6814014144 1.39335997806 -70.4464686467 -6.45918567402 3.75017384729 -0.880388011961 28.0839995839 -20.9436002973 -3.70757011546 -18.6552000574 3.16313979214 -5.54591979943 81.4214966428 -10.1424006156 9.07348967082 -7.39708974848 -0.192430001076 
-36.923797 0.977280437605 -0.71140458 -8.40900020327 -2.62281996204 -99.4351985032 -8.68256037858 -1.13421000779 3.25445984823 0.741845041806 26.8236008707 21.6446013948 -2.73724996319 -21.5664008515 -0.224873999943 -5.46253001986 15.7426007821 0.739176999161 -3.20746003589 -0.577483049454 0.246638984703 75.3158471098 -17.139270307 -6.46442656354 10.3155996988 43.3572997757 4.37643005031 -69.9097933628 -7.2786858579 2.80401292789 1.05438003743 26.984100071 -25.7931985326 -2.7017801505 -23.3554015649 2.43147007801 -3.94351985411 77.9947019438 -11.6731006501 8.82495957749 -9.80483046865 -0.0159405993083 
-36.962326 0.980267437605 -0.70977658 -8.62043980808 -2.15327988821 -98.5236960981 -8.48985000624 3.17234005695 2.98183007274 0.266046006734 23.9246005021 21.4490001449 -1.97430993549 -22.4029999871 -0.139288994899 -4.7391498075 16.0136004902 -0.0126171995127 -2.62337000571 -0.48263600107 -0.417732982256 74.4122199128 -15.6944240428 -9.22268490796 9.27781990249 41.4603991489 6.37249050977 -69.1070412297 -10.9922486106 1.77080178113 3.05673995902 29.333200202 -31.1463012379 -1.94561993933 -26.7480999597 1.22020006173 -2.60688982646 71.5540999338 -13.2247002097 9.64770025925 -11.9757002284 0.168483998176 
